%TF.GenerationSoftware,KiCad,Pcbnew,9.0.1*%
%TF.CreationDate,2025-05-06T17:46:24-06:00*%
%TF.ProjectId,2025_04_STM32F103_RobotBrain,32303235-5f30-4345-9f53-544d33324631,rev?*%
%TF.SameCoordinates,Original*%
%TF.FileFunction,Copper,L1,Top*%
%TF.FilePolarity,Positive*%
%FSLAX46Y46*%
G04 Gerber Fmt 4.6, Leading zero omitted, Abs format (unit mm)*
G04 Created by KiCad (PCBNEW 9.0.1) date 2025-05-06 17:46:24*
%MOMM*%
%LPD*%
G01*
G04 APERTURE LIST*
G04 Aperture macros list*
%AMRoundRect*
0 Rectangle with rounded corners*
0 $1 Rounding radius*
0 $2 $3 $4 $5 $6 $7 $8 $9 X,Y pos of 4 corners*
0 Add a 4 corners polygon primitive as box body*
4,1,4,$2,$3,$4,$5,$6,$7,$8,$9,$2,$3,0*
0 Add four circle primitives for the rounded corners*
1,1,$1+$1,$2,$3*
1,1,$1+$1,$4,$5*
1,1,$1+$1,$6,$7*
1,1,$1+$1,$8,$9*
0 Add four rect primitives between the rounded corners*
20,1,$1+$1,$2,$3,$4,$5,0*
20,1,$1+$1,$4,$5,$6,$7,0*
20,1,$1+$1,$6,$7,$8,$9,0*
20,1,$1+$1,$8,$9,$2,$3,0*%
G04 Aperture macros list end*
%TA.AperFunction,SMDPad,CuDef*%
%ADD10R,1.400000X0.600000*%
%TD*%
%TA.AperFunction,SMDPad,CuDef*%
%ADD11R,1.400000X0.400000*%
%TD*%
%TA.AperFunction,SMDPad,CuDef*%
%ADD12R,0.400000X1.400000*%
%TD*%
%TA.AperFunction,SMDPad,CuDef*%
%ADD13RoundRect,0.250000X-0.450000X0.350000X-0.450000X-0.350000X0.450000X-0.350000X0.450000X0.350000X0*%
%TD*%
%TA.AperFunction,SMDPad,CuDef*%
%ADD14RoundRect,0.075000X0.075000X-0.700000X0.075000X0.700000X-0.075000X0.700000X-0.075000X-0.700000X0*%
%TD*%
%TA.AperFunction,SMDPad,CuDef*%
%ADD15RoundRect,0.075000X0.700000X-0.075000X0.700000X0.075000X-0.700000X0.075000X-0.700000X-0.075000X0*%
%TD*%
%TA.AperFunction,SMDPad,CuDef*%
%ADD16RoundRect,0.250000X0.350000X0.450000X-0.350000X0.450000X-0.350000X-0.450000X0.350000X-0.450000X0*%
%TD*%
%TA.AperFunction,SMDPad,CuDef*%
%ADD17RoundRect,0.250000X0.450000X-0.350000X0.450000X0.350000X-0.450000X0.350000X-0.450000X-0.350000X0*%
%TD*%
%TA.AperFunction,SMDPad,CuDef*%
%ADD18RoundRect,0.250000X-0.337500X-0.475000X0.337500X-0.475000X0.337500X0.475000X-0.337500X0.475000X0*%
%TD*%
%TA.AperFunction,ComponentPad*%
%ADD19RoundRect,0.250000X-0.600000X-0.750000X0.600000X-0.750000X0.600000X0.750000X-0.600000X0.750000X0*%
%TD*%
%TA.AperFunction,ComponentPad*%
%ADD20O,1.700000X2.000000*%
%TD*%
%TA.AperFunction,ComponentPad*%
%ADD21R,1.700000X1.700000*%
%TD*%
%TA.AperFunction,ComponentPad*%
%ADD22O,1.700000X1.700000*%
%TD*%
%TA.AperFunction,ComponentPad*%
%ADD23RoundRect,0.250000X0.725000X-0.600000X0.725000X0.600000X-0.725000X0.600000X-0.725000X-0.600000X0*%
%TD*%
%TA.AperFunction,ComponentPad*%
%ADD24O,1.950000X1.700000*%
%TD*%
%TA.AperFunction,SMDPad,CuDef*%
%ADD25RoundRect,0.250000X0.450000X-0.325000X0.450000X0.325000X-0.450000X0.325000X-0.450000X-0.325000X0*%
%TD*%
%TA.AperFunction,SMDPad,CuDef*%
%ADD26RoundRect,0.150000X-0.587500X-0.150000X0.587500X-0.150000X0.587500X0.150000X-0.587500X0.150000X0*%
%TD*%
%TA.AperFunction,SMDPad,CuDef*%
%ADD27RoundRect,0.250000X-0.450000X0.325000X-0.450000X-0.325000X0.450000X-0.325000X0.450000X0.325000X0*%
%TD*%
%TA.AperFunction,SMDPad,CuDef*%
%ADD28RoundRect,0.250000X-0.350000X-0.450000X0.350000X-0.450000X0.350000X0.450000X-0.350000X0.450000X0*%
%TD*%
%TA.AperFunction,SMDPad,CuDef*%
%ADD29R,1.000000X1.000000*%
%TD*%
%TA.AperFunction,SMDPad,CuDef*%
%ADD30RoundRect,0.250000X0.337500X0.475000X-0.337500X0.475000X-0.337500X-0.475000X0.337500X-0.475000X0*%
%TD*%
%TA.AperFunction,ComponentPad*%
%ADD31RoundRect,0.250000X-0.725000X0.600000X-0.725000X-0.600000X0.725000X-0.600000X0.725000X0.600000X0*%
%TD*%
%TA.AperFunction,SMDPad,CuDef*%
%ADD32RoundRect,0.250000X-0.475000X0.337500X-0.475000X-0.337500X0.475000X-0.337500X0.475000X0.337500X0*%
%TD*%
%TA.AperFunction,SMDPad,CuDef*%
%ADD33RoundRect,0.150000X-0.150000X0.512500X-0.150000X-0.512500X0.150000X-0.512500X0.150000X0.512500X0*%
%TD*%
%TA.AperFunction,ComponentPad*%
%ADD34RoundRect,0.250000X-0.600000X-0.725000X0.600000X-0.725000X0.600000X0.725000X-0.600000X0.725000X0*%
%TD*%
%TA.AperFunction,ComponentPad*%
%ADD35O,1.700000X1.950000*%
%TD*%
%TA.AperFunction,SMDPad,CuDef*%
%ADD36R,1.400000X1.200000*%
%TD*%
%TA.AperFunction,SMDPad,CuDef*%
%ADD37R,2.300000X1.500000*%
%TD*%
%TA.AperFunction,SMDPad,CuDef*%
%ADD38RoundRect,0.250000X0.325000X0.450000X-0.325000X0.450000X-0.325000X-0.450000X0.325000X-0.450000X0*%
%TD*%
%TA.AperFunction,SMDPad,CuDef*%
%ADD39RoundRect,0.250000X0.475000X-0.337500X0.475000X0.337500X-0.475000X0.337500X-0.475000X-0.337500X0*%
%TD*%
%TA.AperFunction,SMDPad,CuDef*%
%ADD40RoundRect,0.250000X-0.250000X0.525000X-0.250000X-0.525000X0.250000X-0.525000X0.250000X0.525000X0*%
%TD*%
%TA.AperFunction,SMDPad,CuDef*%
%ADD41R,1.200000X2.500000*%
%TD*%
%TA.AperFunction,SMDPad,CuDef*%
%ADD42R,0.500000X2.000000*%
%TD*%
%TA.AperFunction,SMDPad,CuDef*%
%ADD43R,2.000000X1.700000*%
%TD*%
%TA.AperFunction,ViaPad*%
%ADD44C,0.600000*%
%TD*%
%TA.AperFunction,Conductor*%
%ADD45C,0.200000*%
%TD*%
%TA.AperFunction,Conductor*%
%ADD46C,0.254000*%
%TD*%
%TA.AperFunction,Conductor*%
%ADD47C,0.381000*%
%TD*%
%TA.AperFunction,Conductor*%
%ADD48C,0.508000*%
%TD*%
G04 APERTURE END LIST*
D10*
%TO.P,MDBT42T-AT1,19,GND@19*%
%TO.N,GND*%
X161600000Y-30800000D03*
D11*
%TO.P,MDBT42T-AT1,18,DEC4*%
%TO.N,unconnected-(MDBT42T-AT1-DEC4-Pad18)*%
X161600000Y-35800000D03*
%TO.P,MDBT42T-AT1,17,DCC*%
%TO.N,unconnected-(MDBT42T-AT1-DCC-Pad17)*%
X161600000Y-36500000D03*
D12*
%TO.P,MDBT42T-AT1,16,GND@16*%
%TO.N,GND*%
X160500000Y-38000000D03*
%TO.P,MDBT42T-AT1,15,VDD*%
%TO.N,+3V3*%
X159800000Y-38000000D03*
%TO.P,MDBT42T-AT1,14,CTS/XL1*%
%TO.N,unconnected-(MDBT42T-AT1-CTS{slash}XL1-Pad14)*%
X159100000Y-38000000D03*
%TO.P,MDBT42T-AT1,13,RTS/XL2*%
%TO.N,unconnected-(MDBT42T-AT1-RTS{slash}XL2-Pad13)*%
X158400000Y-38000000D03*
%TO.P,MDBT42T-AT1,12,FLASH_DEFAULT*%
%TO.N,GND*%
X157700000Y-38000000D03*
%TO.P,MDBT42T-AT1,11,ADC*%
%TO.N,unconnected-(MDBT42T-AT1-ADC-Pad11)*%
X157000000Y-38000000D03*
%TO.P,MDBT42T-AT1,10,GND@10*%
%TO.N,GND*%
X156300000Y-38000000D03*
D11*
%TO.P,MDBT42T-AT1,9,UART_PD*%
X155200000Y-36500000D03*
%TO.P,MDBT42T-AT1,8,RX*%
%TO.N,/BL_RX*%
X155200000Y-35800000D03*
%TO.P,MDBT42T-AT1,7,TX*%
%TO.N,/BL_TX*%
X155200000Y-35100000D03*
%TO.P,MDBT42T-AT1,6,WAKEUP*%
%TO.N,/BL_WAKEUP*%
X155200000Y-34400000D03*
%TO.P,MDBT42T-AT1,5,INDICATOR*%
%TO.N,Net-(MDBT42T-AT1-INDICATOR)*%
X155200000Y-33700000D03*
%TO.P,MDBT42T-AT1,4,RESET*%
%TO.N,unconnected-(MDBT42T-AT1-RESET-Pad4)*%
X155200000Y-33000000D03*
%TO.P,MDBT42T-AT1,3,NC@3*%
%TO.N,unconnected-(MDBT42T-AT1-NC@3-Pad3)*%
X155200000Y-32300000D03*
%TO.P,MDBT42T-AT1,2,NC@2*%
%TO.N,unconnected-(MDBT42T-AT1-NC@2-Pad2)*%
X155200000Y-31600000D03*
D10*
%TO.P,MDBT42T-AT1,1,GND@1*%
%TO.N,GND*%
X155200000Y-30800000D03*
%TD*%
D13*
%TO.P,R2,1*%
%TO.N,/D+*%
X137680000Y-41715000D03*
%TO.P,R2,2*%
%TO.N,/USB_CONN_D+*%
X137680000Y-43715000D03*
%TD*%
D14*
%TO.P,U1,1,VBAT*%
%TO.N,unconnected-(U1-VBAT-Pad1)*%
X136990000Y-72760000D03*
%TO.P,U1,2,PC13*%
%TO.N,/USER_LED*%
X137490000Y-72760000D03*
%TO.P,U1,3,PC14*%
%TO.N,unconnected-(U1-PC14-Pad3)*%
X137990000Y-72760000D03*
%TO.P,U1,4,PC15*%
%TO.N,unconnected-(U1-PC15-Pad4)*%
X138490000Y-72760000D03*
%TO.P,U1,5,RCC_OSC_IN*%
%TO.N,/OSC_IN*%
X138990000Y-72760000D03*
%TO.P,U1,6,RCC_OSC_OUT*%
%TO.N,/OSC_OUT*%
X139490000Y-72760000D03*
%TO.P,U1,7,NRST*%
%TO.N,/RESET*%
X139990000Y-72760000D03*
%TO.P,U1,8,PC0*%
%TO.N,unconnected-(U1-PC0-Pad8)*%
X140490000Y-72760000D03*
%TO.P,U1,9,PC1*%
%TO.N,unconnected-(U1-PC1-Pad9)*%
X140990000Y-72760000D03*
%TO.P,U1,10,PC2*%
%TO.N,unconnected-(U1-PC2-Pad10)*%
X141490000Y-72760000D03*
%TO.P,U1,11,PC3*%
%TO.N,unconnected-(U1-PC3-Pad11)*%
X141990000Y-72760000D03*
%TO.P,U1,12,VSSA*%
%TO.N,GND*%
X142490000Y-72760000D03*
%TO.P,U1,13,VDDA*%
%TO.N,+3V3*%
X142990000Y-72760000D03*
%TO.P,U1,14,PA0*%
%TO.N,/ULTRA_TRIG*%
X143490000Y-72760000D03*
%TO.P,U1,15,PA1*%
%TO.N,Net-(U1-PA1)*%
X143990000Y-72760000D03*
%TO.P,U1,16,PA2*%
X144490000Y-72760000D03*
D15*
%TO.P,U1,17,PA3*%
%TO.N,/ULTRA_ECHO*%
X146415000Y-70835000D03*
%TO.P,U1,18,VSS*%
%TO.N,GND*%
X146415000Y-70335000D03*
%TO.P,U1,19,VDD*%
%TO.N,+3V3*%
X146415000Y-69835000D03*
%TO.P,U1,20,PA4*%
%TO.N,/PWR_ADC*%
X146415000Y-69335000D03*
%TO.P,U1,21,PA5*%
%TO.N,unconnected-(U1-PA5-Pad21)*%
X146415000Y-68835000D03*
%TO.P,U1,22,PA6*%
%TO.N,/E1B*%
X146415000Y-68335000D03*
%TO.P,U1,23,PA7*%
%TO.N,/E1A*%
X146415000Y-67835000D03*
%TO.P,U1,24,PC4*%
%TO.N,unconnected-(U1-PC4-Pad24)*%
X146415000Y-67335000D03*
%TO.P,U1,25,PC5*%
%TO.N,unconnected-(U1-PC5-Pad25)*%
X146415000Y-66835000D03*
%TO.P,U1,26,PB0*%
%TO.N,/uBUTTON*%
X146415000Y-66335000D03*
%TO.P,U1,27,PB1*%
%TO.N,unconnected-(U1-PB1-Pad27)*%
X146415000Y-65835000D03*
%TO.P,U1,28,PB2*%
%TO.N,/IMU_INT*%
X146415000Y-65335000D03*
%TO.P,U1,29,PB10*%
%TO.N,/IMU_I2C_SCL*%
X146415000Y-64835000D03*
%TO.P,U1,30,PB11*%
%TO.N,/IMU_I2C_SDA*%
X146415000Y-64335000D03*
%TO.P,U1,31,VSS*%
%TO.N,GND*%
X146415000Y-63835000D03*
%TO.P,U1,32,VDD*%
%TO.N,+3V3*%
X146415000Y-63335000D03*
D14*
%TO.P,U1,33,PB12*%
%TO.N,/PS2_CS*%
X144490000Y-61410000D03*
%TO.P,U1,34,PB13*%
%TO.N,/PS2_SCK*%
X143990000Y-61410000D03*
%TO.P,U1,35,PB14*%
%TO.N,/PS2_MISO*%
X143490000Y-61410000D03*
%TO.P,U1,36,PB15*%
%TO.N,/PS2_MOSI*%
X142990000Y-61410000D03*
%TO.P,U1,37,PC6*%
%TO.N,/AN1*%
X142490000Y-61410000D03*
%TO.P,U1,38,PC7*%
%TO.N,/AN2*%
X141990000Y-61410000D03*
%TO.P,U1,39,PC8*%
%TO.N,/BN1*%
X141490000Y-61410000D03*
%TO.P,U1,40,PC9*%
%TO.N,/BN2*%
X140990000Y-61410000D03*
%TO.P,U1,41,PA8*%
%TO.N,/BL_WAKEUP*%
X140490000Y-61410000D03*
%TO.P,U1,42,PA9*%
%TO.N,/BL_RX*%
X139990000Y-61410000D03*
%TO.P,U1,43,PA10*%
%TO.N,/BL_TX*%
X139490000Y-61410000D03*
%TO.P,U1,44,USB_DM*%
%TO.N,/USB_D-*%
X138990000Y-61410000D03*
%TO.P,U1,45,USB_DP*%
%TO.N,/USB_D+*%
X138490000Y-61410000D03*
%TO.P,U1,46,SYS_JTMS-SWDIO*%
%TO.N,/SWDIO*%
X137990000Y-61410000D03*
%TO.P,U1,47,VSS*%
%TO.N,GND*%
X137490000Y-61410000D03*
%TO.P,U1,48,VDD*%
%TO.N,+3V3*%
X136990000Y-61410000D03*
D15*
%TO.P,U1,49,SYS_JTCK-SWCLK*%
%TO.N,/SWCLK*%
X135065000Y-63335000D03*
%TO.P,U1,50,PA15*%
%TO.N,unconnected-(U1-PA15-Pad50)*%
X135065000Y-63835000D03*
%TO.P,U1,51,PC10*%
%TO.N,/USER_TX*%
X135065000Y-64335000D03*
%TO.P,U1,52,PC11*%
%TO.N,/USER_RX*%
X135065000Y-64835000D03*
%TO.P,U1,53,PC12*%
%TO.N,/X4*%
X135065000Y-65335000D03*
%TO.P,U1,54,PD2*%
%TO.N,/X3*%
X135065000Y-65835000D03*
%TO.P,U1,55,PB3*%
%TO.N,/X2*%
X135065000Y-66335000D03*
%TO.P,U1,56,PB4*%
%TO.N,/X1*%
X135065000Y-66835000D03*
%TO.P,U1,57,PB5*%
%TO.N,unconnected-(U1-PB5-Pad57)*%
X135065000Y-67335000D03*
%TO.P,U1,58,PB6*%
%TO.N,/E2B*%
X135065000Y-67835000D03*
%TO.P,U1,59,PB7*%
%TO.N,/E2A*%
X135065000Y-68335000D03*
%TO.P,U1,60,BOOT0*%
%TO.N,/BOOT*%
X135065000Y-68835000D03*
%TO.P,U1,61,PB8*%
%TO.N,unconnected-(U1-PB8-Pad61)*%
X135065000Y-69335000D03*
%TO.P,U1,62,PB9*%
%TO.N,/RGB_DIN*%
X135065000Y-69835000D03*
%TO.P,U1,63,VSS*%
%TO.N,GND*%
X135065000Y-70335000D03*
%TO.P,U1,64,VDD*%
%TO.N,+3V3*%
X135065000Y-70835000D03*
%TD*%
D16*
%TO.P,R9,1*%
%TO.N,+5V*%
X128117500Y-81300000D03*
%TO.P,R9,2*%
%TO.N,Net-(LED1-DIN)*%
X126117500Y-81300000D03*
%TD*%
D17*
%TO.P,R3,1*%
%TO.N,/USB_CONN_D-*%
X139860000Y-43735000D03*
%TO.P,R3,2*%
%TO.N,/D-*%
X139860000Y-41735000D03*
%TD*%
D18*
%TO.P,C12,1*%
%TO.N,+5V*%
X97200000Y-97150000D03*
%TO.P,C12,2*%
%TO.N,GND*%
X99275000Y-97150000D03*
%TD*%
D19*
%TO.P,J6,1,Pin_1*%
%TO.N,+3V3*%
X122580000Y-99900000D03*
D20*
%TO.P,J6,2,Pin_2*%
%TO.N,GND*%
X125080000Y-99900000D03*
%TD*%
D21*
%TO.P,J9,1,Pin_1*%
%TO.N,+3V3*%
X178500000Y-49800000D03*
D22*
%TO.P,J9,2,Pin_2*%
%TO.N,/PS2_SCK*%
X178500000Y-47260000D03*
%TO.P,J9,3,Pin_3*%
%TO.N,unconnected-(J9-Pin_3-Pad3)*%
X178500000Y-44720000D03*
%TO.P,J9,4,Pin_4*%
%TO.N,/PS2_CS*%
X178500000Y-42180000D03*
%TO.P,J9,5,Pin_5*%
%TO.N,GND*%
X178500000Y-39640000D03*
%TO.P,J9,6,Pin_6*%
%TO.N,/PS2_MISO*%
X178500000Y-37100000D03*
%TO.P,J9,7,Pin_7*%
%TO.N,/PS2_MOSI*%
X178500000Y-34560000D03*
%TD*%
D23*
%TO.P,J8,1,Pin_1*%
%TO.N,/E2A*%
X157890000Y-100070000D03*
D24*
%TO.P,J8,2,Pin_2*%
%TO.N,/E2B*%
X157890000Y-97570000D03*
%TO.P,J8,3,Pin_3*%
%TO.N,/E1A*%
X157890000Y-95070000D03*
%TO.P,J8,4,Pin_4*%
%TO.N,/E1B*%
X157890000Y-92570000D03*
%TO.P,J8,5,Pin_5*%
%TO.N,/PWR_ADC*%
X157890000Y-90070000D03*
%TD*%
D21*
%TO.P,J2,1,Pin_1*%
%TO.N,+5V*%
X176465000Y-79835000D03*
D22*
%TO.P,J2,2,Pin_2*%
%TO.N,GND*%
X176465000Y-77295000D03*
%TO.P,J2,3,Pin_3*%
%TO.N,/IMU_I2C_SCL*%
X176465000Y-74755000D03*
%TO.P,J2,4,Pin_4*%
%TO.N,/IMU_I2C_SDA*%
X176465000Y-72215000D03*
%TO.P,J2,5,Pin_5*%
%TO.N,unconnected-(J2-Pin_5-Pad5)*%
X176465000Y-69675000D03*
%TO.P,J2,6,Pin_6*%
%TO.N,unconnected-(J2-Pin_6-Pad6)*%
X176465000Y-67135000D03*
%TO.P,J2,7,Pin_7*%
%TO.N,unconnected-(J2-Pin_7-Pad7)*%
X176465000Y-64595000D03*
%TO.P,J2,8,Pin_8*%
%TO.N,/IMU_INT*%
X176465000Y-62055000D03*
%TD*%
D25*
%TO.P,D4,1,K*%
%TO.N,GND*%
X148410000Y-33500000D03*
%TO.P,D4,2,A*%
%TO.N,Net-(D4-A)*%
X148410000Y-31450000D03*
%TD*%
D26*
%TO.P,Q1,1,G*%
%TO.N,+3V3*%
X126210000Y-77360000D03*
%TO.P,Q1,2,S*%
%TO.N,Net-(LED1-DIN)*%
X126210000Y-79260000D03*
%TO.P,Q1,3,D*%
%TO.N,/RGB_DIN*%
X128085000Y-78310000D03*
%TD*%
D27*
%TO.P,D3,1,K*%
%TO.N,GND*%
X130690000Y-75155000D03*
%TO.P,D3,2,A*%
%TO.N,Net-(D3-A)*%
X130690000Y-77205000D03*
%TD*%
D28*
%TO.P,R5,1*%
%TO.N,+3V3*%
X145347500Y-81570000D03*
%TO.P,R5,2*%
%TO.N,Net-(D2-A)*%
X147347500Y-81570000D03*
%TD*%
D29*
%TO.P,LED1,1,VDD*%
%TO.N,+5V*%
X97150000Y-100700000D03*
%TO.P,LED1,2,DOUT*%
%TO.N,Net-(LED1-DOUT)*%
X97150000Y-103900000D03*
%TO.P,LED1,3,VSS*%
%TO.N,GND*%
X101550000Y-103900000D03*
%TO.P,LED1,4,DIN*%
%TO.N,Net-(LED1-DIN)*%
X101550000Y-100700000D03*
%TD*%
D27*
%TO.P,F1,1*%
%TO.N,Net-(J1-VBUS)*%
X142670000Y-40210000D03*
%TO.P,F1,2*%
%TO.N,Vusb*%
X142670000Y-42260000D03*
%TD*%
D30*
%TO.P,C9,1*%
%TO.N,/OSC_IN*%
X138337500Y-75730000D03*
%TO.P,C9,2*%
%TO.N,GND*%
X136262500Y-75730000D03*
%TD*%
D16*
%TO.P,R10,1*%
%TO.N,/RGB_DIN*%
X128117500Y-75210000D03*
%TO.P,R10,2*%
%TO.N,+3V3*%
X126117500Y-75210000D03*
%TD*%
D21*
%TO.P,J4,1,Pin_1*%
%TO.N,+3V3*%
X116160000Y-40040000D03*
D22*
%TO.P,J4,2,Pin_2*%
%TO.N,/SWCLK*%
X118700000Y-40040000D03*
%TO.P,J4,3,Pin_3*%
%TO.N,GND*%
X121240000Y-40040000D03*
%TO.P,J4,4,Pin_4*%
%TO.N,/SWDIO*%
X123780000Y-40040000D03*
%TD*%
D28*
%TO.P,R8,1*%
%TO.N,+3V3*%
X175000000Y-86410000D03*
%TO.P,R8,2*%
%TO.N,/uBUTTON*%
X177000000Y-86410000D03*
%TD*%
D31*
%TO.P,J11,1,Pin_1*%
%TO.N,+3V3*%
X98720000Y-46270000D03*
D24*
%TO.P,J11,2,Pin_2*%
%TO.N,/USER_TX*%
X98720000Y-48770000D03*
%TO.P,J11,3,Pin_3*%
%TO.N,/USER_RX*%
X98720000Y-51270000D03*
%TO.P,J11,4,Pin_4*%
%TO.N,GND*%
X98720000Y-53770000D03*
%TD*%
D30*
%TO.P,C2,1*%
%TO.N,+3V3*%
X135577500Y-60340000D03*
%TO.P,C2,2*%
%TO.N,GND*%
X133502500Y-60340000D03*
%TD*%
D13*
%TO.P,R6,1*%
%TO.N,/USER_LED*%
X132960000Y-75150000D03*
%TO.P,R6,2*%
%TO.N,Net-(D3-A)*%
X132960000Y-77150000D03*
%TD*%
D17*
%TO.P,R7,1*%
%TO.N,Net-(MDBT42T-AT1-INDICATOR)*%
X150640000Y-33475000D03*
%TO.P,R7,2*%
%TO.N,Net-(D4-A)*%
X150640000Y-31475000D03*
%TD*%
D32*
%TO.P,C4,1*%
%TO.N,+3V3*%
X148960000Y-70302500D03*
%TO.P,C4,2*%
%TO.N,GND*%
X148960000Y-72377500D03*
%TD*%
D33*
%TO.P,U2,1,I/O1*%
%TO.N,/USB_CONN_D-*%
X139730000Y-47510000D03*
%TO.P,U2,2,GND*%
%TO.N,GND*%
X138780000Y-47510000D03*
%TO.P,U2,3,I/O2*%
%TO.N,/USB_CONN_D+*%
X137830000Y-47510000D03*
%TO.P,U2,4,I/O2*%
%TO.N,/USB_D+*%
X137830000Y-49785000D03*
%TO.P,U2,5,VBUS*%
%TO.N,Vusb*%
X138780000Y-49785000D03*
%TO.P,U2,6,I/O1*%
%TO.N,/USB_D-*%
X139730000Y-49785000D03*
%TD*%
D18*
%TO.P,C5,1*%
%TO.N,+3V3*%
X145352500Y-76290000D03*
%TO.P,C5,2*%
%TO.N,GND*%
X147427500Y-76290000D03*
%TD*%
D21*
%TO.P,J3,1,Pin_1*%
%TO.N,+5V*%
X134460000Y-103485000D03*
D22*
%TO.P,J3,2,Pin_2*%
%TO.N,/ULTRA_TRIG*%
X137000000Y-103485000D03*
%TO.P,J3,3,Pin_3*%
%TO.N,/ULTRA_ECHO*%
X139540000Y-103485000D03*
%TO.P,J3,4,Pin_4*%
%TO.N,GND*%
X142080000Y-103485000D03*
%TD*%
D34*
%TO.P,J7,1,Pin_1*%
%TO.N,/AN2*%
X152510000Y-49370000D03*
D35*
%TO.P,J7,2,Pin_2*%
%TO.N,/AN1*%
X155010000Y-49370000D03*
%TO.P,J7,3,Pin_3*%
%TO.N,/BN2*%
X157510000Y-49370000D03*
%TO.P,J7,4,Pin_4*%
%TO.N,/BN1*%
X160010000Y-49370000D03*
%TD*%
D36*
%TO.P,Y2,1,1*%
%TO.N,/OSC_IN*%
X137952500Y-79920000D03*
%TO.P,Y2,2,2*%
%TO.N,GND*%
X140152500Y-79920000D03*
%TO.P,Y2,3,3*%
%TO.N,/OSC_OUT*%
X140152500Y-78220000D03*
%TO.P,Y2,4,4*%
%TO.N,GND*%
X137952500Y-78220000D03*
%TD*%
D37*
%TO.P,SW1,1,A*%
%TO.N,GND*%
X134220000Y-84280000D03*
%TO.P,SW1,2,B*%
%TO.N,/RESET*%
X140920000Y-84280000D03*
%TD*%
D18*
%TO.P,C6,1*%
%TO.N,+3V3*%
X145352500Y-78580000D03*
%TO.P,C6,2*%
%TO.N,GND*%
X147427500Y-78580000D03*
%TD*%
D19*
%TO.P,J5,1,Pin_1*%
%TO.N,+5V*%
X111750000Y-99875000D03*
D20*
%TO.P,J5,2,Pin_2*%
%TO.N,GND*%
X114250000Y-99875000D03*
%TD*%
D38*
%TO.P,D2,1,K*%
%TO.N,GND*%
X149492500Y-83950000D03*
%TO.P,D2,2,A*%
%TO.N,Net-(D2-A)*%
X147442500Y-83950000D03*
%TD*%
D30*
%TO.P,C1,1*%
%TO.N,+3V3*%
X134137500Y-72690000D03*
%TO.P,C1,2*%
%TO.N,GND*%
X132062500Y-72690000D03*
%TD*%
D29*
%TO.P,LED2,1,VDD*%
%TO.N,+5V*%
X177760000Y-103740000D03*
%TO.P,LED2,2,DOUT*%
%TO.N,unconnected-(LED2-DOUT-Pad2)*%
X177760000Y-100540000D03*
%TO.P,LED2,3,VSS*%
%TO.N,GND*%
X173360000Y-100540000D03*
%TO.P,LED2,4,DIN*%
%TO.N,Net-(LED1-DOUT)*%
X173360000Y-103740000D03*
%TD*%
D18*
%TO.P,C8,1*%
%TO.N,/OSC_OUT*%
X140312500Y-76140000D03*
%TO.P,C8,2*%
%TO.N,GND*%
X142387500Y-76140000D03*
%TD*%
D16*
%TO.P,R1,1*%
%TO.N,/BOOT*%
X121300000Y-69810000D03*
%TO.P,R1,2*%
%TO.N,Net-(R1-Pad2)*%
X119300000Y-69810000D03*
%TD*%
D23*
%TO.P,J10,1,Pin_1*%
%TO.N,+3V3*%
X97510000Y-78760000D03*
D24*
%TO.P,J10,2,Pin_2*%
%TO.N,/X1*%
X97510000Y-76260000D03*
%TO.P,J10,3,Pin_3*%
%TO.N,/X2*%
X97510000Y-73760000D03*
%TO.P,J10,4,Pin_4*%
%TO.N,/X3*%
X97510000Y-71260000D03*
%TO.P,J10,5,Pin_5*%
%TO.N,/X4*%
X97510000Y-68760000D03*
%TO.P,J10,6,Pin_6*%
%TO.N,GND*%
X97510000Y-66260000D03*
%TD*%
D39*
%TO.P,C3,1*%
%TO.N,+3V3*%
X147470000Y-61457500D03*
%TO.P,C3,2*%
%TO.N,GND*%
X147470000Y-59382500D03*
%TD*%
D40*
%TO.P,SW2,1,A*%
%TO.N,/uBUTTON*%
X177200000Y-88835000D03*
X177200000Y-94085000D03*
%TO.P,SW2,2,B*%
%TO.N,GND*%
X174000000Y-88835000D03*
X174000000Y-94085000D03*
%TD*%
D25*
%TO.P,D1,1,K*%
%TO.N,GND*%
X147160000Y-42210000D03*
%TO.P,D1,2,A*%
%TO.N,Net-(D1-A)*%
X147160000Y-40160000D03*
%TD*%
D41*
%TO.P,S1,1*%
%TO.N,+3V3*%
X121610000Y-72880000D03*
%TO.P,S1,2*%
%TO.N,Net-(R1-Pad2)*%
X119110000Y-72880000D03*
%TO.P,S1,3*%
%TO.N,GND*%
X116610000Y-72880000D03*
%TO.P,S1,4*%
%TO.N,unconnected-(S1-Pad4)*%
X121610000Y-78380000D03*
%TO.P,S1,5*%
%TO.N,unconnected-(S1-Pad5)*%
X119110000Y-78380000D03*
%TO.P,S1,6*%
%TO.N,unconnected-(S1-Pad6)*%
X116610000Y-78380000D03*
%TD*%
D30*
%TO.P,C11,1*%
%TO.N,+5V*%
X177747500Y-107320000D03*
%TO.P,C11,2*%
%TO.N,GND*%
X175672500Y-107320000D03*
%TD*%
D42*
%TO.P,J1,1,VBUS*%
%TO.N,Net-(J1-VBUS)*%
X139980000Y-37000000D03*
%TO.P,J1,2,D-*%
%TO.N,/D-*%
X139180000Y-37000000D03*
%TO.P,J1,3,D+*%
%TO.N,/D+*%
X138380000Y-37000000D03*
%TO.P,J1,4,ID*%
%TO.N,unconnected-(J1-ID-Pad4)*%
X137580000Y-37000000D03*
%TO.P,J1,5,GND*%
%TO.N,GND*%
X136780000Y-37000000D03*
D43*
%TO.P,J1,6,Shield*%
X142830000Y-36900000D03*
X142830000Y-31450000D03*
X133930000Y-36900000D03*
X133930000Y-31450000D03*
%TD*%
D30*
%TO.P,C7,1*%
%TO.N,/RESET*%
X138247500Y-88630000D03*
%TO.P,C7,2*%
%TO.N,GND*%
X136172500Y-88630000D03*
%TD*%
D17*
%TO.P,R4,1*%
%TO.N,Vusb*%
X144880000Y-42215000D03*
%TO.P,R4,2*%
%TO.N,Net-(D1-A)*%
X144880000Y-40215000D03*
%TD*%
D44*
%TO.N,/E2B*%
X160000000Y-104500000D03*
X160000000Y-107600000D03*
%TO.N,/E2A*%
X152500000Y-107600000D03*
X152500000Y-103500000D03*
%TO.N,+3V3*%
X130000000Y-74000000D03*
X127000000Y-74000000D03*
%TO.N,+5V*%
X180000000Y-97000000D03*
X180000000Y-93500000D03*
%TO.N,+3V3*%
X160000000Y-36000000D03*
X159500000Y-33500000D03*
%TO.N,GND*%
X157700000Y-39210000D03*
X153880000Y-30820000D03*
X156420000Y-36500000D03*
X162820000Y-30810000D03*
X160490000Y-39250000D03*
X156300000Y-39230000D03*
X135300000Y-31060000D03*
X135310000Y-31970000D03*
X138320000Y-48630000D03*
X101550000Y-104940000D03*
X136780000Y-35480000D03*
X137200000Y-59890000D03*
X135310000Y-36460000D03*
X100250000Y-97140000D03*
X148430000Y-76280000D03*
X133260000Y-70570000D03*
X135310000Y-75730000D03*
X141240000Y-79920000D03*
X116610000Y-74610000D03*
X150070000Y-72380000D03*
X174000000Y-92900000D03*
X132070000Y-71580000D03*
X133640000Y-85390000D03*
X141410000Y-36420000D03*
X145110000Y-70690000D03*
X173350000Y-99580000D03*
X148580000Y-83950000D03*
X135220000Y-88640000D03*
X141420000Y-37150000D03*
X141430000Y-31900000D03*
X141430000Y-31090000D03*
X175680000Y-106180000D03*
X148460000Y-78570000D03*
X137960000Y-77270000D03*
X148070000Y-63560000D03*
X148400000Y-32585000D03*
X130690000Y-76070000D03*
X133510000Y-59260000D03*
X142390000Y-77290000D03*
X173990000Y-90010000D03*
X142300000Y-74080000D03*
X147470000Y-58420000D03*
X135310000Y-37250000D03*
X147170000Y-41280000D03*
%TD*%
D45*
%TO.N,/E2B*%
X92701000Y-105201000D02*
X92701000Y-85680160D01*
X95701000Y-108201000D02*
X92701000Y-105201000D01*
X92701000Y-85680160D02*
X110546160Y-67835000D01*
X159399000Y-108201000D02*
X95701000Y-108201000D01*
X160000000Y-107600000D02*
X159399000Y-108201000D01*
X110546160Y-67835000D02*
X135065000Y-67835000D01*
X160000000Y-99680000D02*
X160000000Y-104500000D01*
X157890000Y-97570000D02*
X160000000Y-99680000D01*
%TO.N,/E2A*%
X111665000Y-68335000D02*
X135065000Y-68335000D01*
X94500000Y-85500000D02*
X111665000Y-68335000D01*
X94500000Y-105500000D02*
X94500000Y-85500000D01*
X96600000Y-107600000D02*
X94500000Y-105500000D01*
X152500000Y-107600000D02*
X96600000Y-107600000D01*
X155930000Y-100070000D02*
X152500000Y-103500000D01*
X157890000Y-100070000D02*
X155930000Y-100070000D01*
%TO.N,/RESET*%
X139990000Y-73568824D02*
X139990000Y-72760000D01*
X143138216Y-74681000D02*
X141102176Y-74681000D01*
X143728608Y-75271392D02*
X143138216Y-74681000D01*
X143728608Y-81471392D02*
X143728608Y-75271392D01*
X140920000Y-84280000D02*
X143728608Y-81471392D01*
X141102176Y-74681000D02*
X139990000Y-73568824D01*
%TO.N,+5V*%
X111750000Y-99875000D02*
X115360000Y-103485000D01*
X115360000Y-103485000D02*
X134460000Y-103485000D01*
%TO.N,/ULTRA_ECHO*%
X150368500Y-92656500D02*
X150368500Y-75384660D01*
X146415000Y-71431160D02*
X146415000Y-70835000D01*
X139540000Y-103485000D02*
X150368500Y-92656500D01*
X150368500Y-75384660D02*
X146415000Y-71431160D01*
D46*
%TO.N,+3V3*%
X125000000Y-74000000D02*
X124953750Y-74046250D01*
X127000000Y-74000000D02*
X125000000Y-74000000D01*
D45*
X124953750Y-74046250D02*
X126117500Y-75210000D01*
D46*
X132827500Y-74000000D02*
X130000000Y-74000000D01*
X134137500Y-72690000D02*
X132827500Y-74000000D01*
D45*
%TO.N,/RGB_DIN*%
X132792500Y-69835000D02*
X135065000Y-69835000D01*
X128117500Y-74510000D02*
X132792500Y-69835000D01*
X128117500Y-75210000D02*
X128117500Y-74510000D01*
%TO.N,+3V3*%
X121610000Y-72880000D02*
X123787500Y-72880000D01*
X123787500Y-72880000D02*
X124953750Y-74046250D01*
X126210000Y-77880532D02*
X126210000Y-77360000D01*
X127248500Y-78919032D02*
X126210000Y-77880532D01*
X127248500Y-79600968D02*
X127248500Y-78919032D01*
X127018500Y-79830968D02*
X127248500Y-79600968D01*
X122580000Y-99900000D02*
X127018500Y-95461500D01*
X127018500Y-95461500D02*
X127018500Y-79830968D01*
X96234000Y-48756000D02*
X98720000Y-46270000D01*
X96234000Y-77484000D02*
X96234000Y-48756000D01*
X97510000Y-78760000D02*
X96234000Y-77484000D01*
D46*
X117338000Y-38862000D02*
X116160000Y-40040000D01*
X119878000Y-44640500D02*
X119878000Y-39552056D01*
X135577500Y-60340000D02*
X119878000Y-44640500D01*
X119878000Y-39552056D02*
X119187944Y-38862000D01*
X119187944Y-38862000D02*
X117338000Y-38862000D01*
D45*
%TO.N,+5V*%
X180000000Y-101500000D02*
X177760000Y-103740000D01*
X180000000Y-97000000D02*
X180000000Y-101500000D01*
X180000000Y-83370000D02*
X180000000Y-93500000D01*
X176465000Y-79835000D02*
X180000000Y-83370000D01*
%TO.N,+3V3*%
X181000000Y-56000000D02*
X178400000Y-53400000D01*
X181000000Y-94500000D02*
X181000000Y-56000000D01*
D46*
X174900000Y-53400000D02*
X178500000Y-49800000D01*
D45*
X180000000Y-95500000D02*
X181000000Y-94500000D01*
X178400000Y-53400000D02*
X174900000Y-53400000D01*
X177053840Y-95500000D02*
X180000000Y-95500000D01*
X175000000Y-93446160D02*
X177053840Y-95500000D01*
X175000000Y-86410000D02*
X175000000Y-93446160D01*
%TO.N,/uBUTTON*%
X177200000Y-86610000D02*
X177000000Y-86410000D01*
X177200000Y-88835000D02*
X177200000Y-86610000D01*
X177200000Y-88835000D02*
X177200000Y-94085000D01*
%TO.N,+5V*%
X177760000Y-104240000D02*
X177747500Y-104252500D01*
X177747500Y-104252500D02*
X177747500Y-107320000D01*
X177760000Y-103740000D02*
X177760000Y-104240000D01*
X173800000Y-107000000D02*
X177060000Y-103740000D01*
X177060000Y-103740000D02*
X177760000Y-103740000D01*
X97000000Y-107000000D02*
X173800000Y-107000000D01*
X96349000Y-106349000D02*
X97000000Y-107000000D01*
X96349000Y-101501000D02*
X96349000Y-106349000D01*
X97150000Y-100700000D02*
X96349000Y-101501000D01*
X97951000Y-101501000D02*
X97150000Y-100700000D01*
X110124000Y-101501000D02*
X97951000Y-101501000D01*
X111750000Y-99875000D02*
X110124000Y-101501000D01*
%TO.N,Net-(LED1-DOUT)*%
X171559000Y-105541000D02*
X173360000Y-103740000D01*
X97150000Y-103900000D02*
X98791000Y-105541000D01*
X98791000Y-105541000D02*
X171559000Y-105541000D01*
%TO.N,/BOOT*%
X122275000Y-68835000D02*
X135065000Y-68835000D01*
X121300000Y-69810000D02*
X122275000Y-68835000D01*
%TO.N,+3V3*%
X126210000Y-75302500D02*
X126117500Y-75210000D01*
X126210000Y-77360000D02*
X126210000Y-75302500D01*
%TO.N,/RGB_DIN*%
X128085000Y-75242500D02*
X128117500Y-75210000D01*
X128085000Y-78310000D02*
X128085000Y-75242500D01*
%TO.N,Net-(LED1-DIN)*%
X126210000Y-81207500D02*
X126117500Y-81300000D01*
X126210000Y-79260000D02*
X126210000Y-81207500D01*
X106717500Y-100700000D02*
X126117500Y-81300000D01*
X101550000Y-100700000D02*
X106717500Y-100700000D01*
%TO.N,+3V3*%
X122600000Y-99900000D02*
X123000000Y-99500000D01*
X122580000Y-99900000D02*
X122600000Y-99900000D01*
%TO.N,+5V*%
X134460000Y-103485000D02*
X134460000Y-87642500D01*
X134460000Y-87642500D02*
X128117500Y-81300000D01*
%TO.N,/ULTRA_TRIG*%
X145925160Y-75264000D02*
X146446500Y-75785340D01*
X145185176Y-75264000D02*
X145925160Y-75264000D01*
X146446500Y-75785340D02*
X146446500Y-94038500D01*
X143490000Y-73568824D02*
X145185176Y-75264000D01*
X143490000Y-72760000D02*
X143490000Y-73568824D01*
X146446500Y-94038500D02*
X137000000Y-103485000D01*
%TO.N,/USER_LED*%
X137490000Y-73568824D02*
X137490000Y-72760000D01*
X137222824Y-73836000D02*
X137490000Y-73568824D01*
X134274000Y-73836000D02*
X137222824Y-73836000D01*
X132960000Y-75150000D02*
X134274000Y-73836000D01*
%TO.N,/RESET*%
X138247500Y-86952500D02*
X140920000Y-84280000D01*
X138247500Y-88630000D02*
X138247500Y-86952500D01*
%TO.N,/ULTRA_ECHO*%
X139540000Y-103485000D02*
X139985000Y-103485000D01*
X139985000Y-103485000D02*
X140000000Y-103500000D01*
%TO.N,/PWR_ADC*%
X157890000Y-77633840D02*
X157890000Y-90070000D01*
X149591160Y-69335000D02*
X157890000Y-77633840D01*
X146415000Y-69335000D02*
X149591160Y-69335000D01*
%TO.N,/E1B*%
X161466450Y-88993550D02*
X157890000Y-92570000D01*
X161466450Y-79033550D02*
X161466450Y-88993550D01*
X150767900Y-68335000D02*
X161466450Y-79033550D01*
X146415000Y-68335000D02*
X150767900Y-68335000D01*
%TO.N,unconnected-(U1-PA5-Pad21)*%
X146415000Y-68884000D02*
X146500000Y-68884000D01*
X146415000Y-68835000D02*
X146415000Y-68884000D01*
%TO.N,/E1A*%
X160430000Y-95070000D02*
X157890000Y-95070000D01*
X162000000Y-93500000D02*
X160430000Y-95070000D01*
X150835000Y-67835000D02*
X162000000Y-79000000D01*
X162000000Y-79000000D02*
X162000000Y-93500000D01*
X146415000Y-67835000D02*
X150835000Y-67835000D01*
%TO.N,/uBUTTON*%
X156925000Y-66335000D02*
X146415000Y-66335000D01*
X177000000Y-86410000D02*
X156925000Y-66335000D01*
D46*
%TO.N,+3V3*%
X166842500Y-61457500D02*
X174900000Y-53400000D01*
X147470000Y-61457500D02*
X166842500Y-61457500D01*
D45*
X179550000Y-49800000D02*
X178500000Y-49800000D01*
X180401000Y-48949000D02*
X179550000Y-49800000D01*
X180401000Y-34402000D02*
X180401000Y-48949000D01*
X179408000Y-33409000D02*
X180401000Y-34402000D01*
X159591000Y-33409000D02*
X179408000Y-33409000D01*
X159500000Y-33500000D02*
X159591000Y-33409000D01*
X159800000Y-36200000D02*
X160000000Y-36000000D01*
X159800000Y-38000000D02*
X159800000Y-36200000D01*
%TO.N,/IMU_INT*%
X177616000Y-63206000D02*
X176465000Y-62055000D01*
X176941760Y-75906000D02*
X177616000Y-75231760D01*
X175988240Y-75906000D02*
X176941760Y-75906000D01*
X165417240Y-65335000D02*
X175988240Y-75906000D01*
X146415000Y-65335000D02*
X165417240Y-65335000D01*
X177616000Y-75231760D02*
X177616000Y-63206000D01*
%TO.N,/IMU_I2C_SCL*%
X166545000Y-64835000D02*
X176465000Y-74755000D01*
X146415000Y-64835000D02*
X166545000Y-64835000D01*
%TO.N,/IMU_I2C_SDA*%
X168585000Y-64335000D02*
X146415000Y-64335000D01*
X176465000Y-72215000D02*
X168585000Y-64335000D01*
%TO.N,/X1*%
X106935000Y-66835000D02*
X135065000Y-66835000D01*
X97510000Y-76260000D02*
X106935000Y-66835000D01*
%TO.N,/X2*%
X104935000Y-66335000D02*
X135065000Y-66335000D01*
X97510000Y-73760000D02*
X104935000Y-66335000D01*
%TO.N,/X3*%
X102935000Y-65835000D02*
X135065000Y-65835000D01*
X97510000Y-71260000D02*
X102935000Y-65835000D01*
%TO.N,/X4*%
X100935000Y-65335000D02*
X135065000Y-65335000D01*
X97510000Y-68760000D02*
X100935000Y-65335000D01*
%TO.N,Net-(R1-Pad2)*%
X119110000Y-70000000D02*
X119300000Y-69810000D01*
X119110000Y-72880000D02*
X119110000Y-70000000D01*
%TO.N,+5V*%
X97150000Y-97200000D02*
X97200000Y-97150000D01*
X97150000Y-100700000D02*
X97150000Y-97200000D01*
%TO.N,/PS2_SCK*%
X175740000Y-47260000D02*
X178500000Y-47260000D01*
X145134200Y-54000000D02*
X169000000Y-54000000D01*
X143990000Y-55144200D02*
X145134200Y-54000000D01*
X169000000Y-54000000D02*
X175740000Y-47260000D01*
X143990000Y-61410000D02*
X143990000Y-55144200D01*
%TO.N,/PS2_CS*%
X177349000Y-48649000D02*
X179351000Y-48649000D01*
X161569000Y-54500000D02*
X172500000Y-54500000D01*
X155500000Y-60569000D02*
X161569000Y-54500000D01*
X155500000Y-60569000D02*
X145331000Y-60569000D01*
X172500000Y-54500000D02*
X172500000Y-53498000D01*
X172500000Y-53498000D02*
X177349000Y-48649000D01*
X155598100Y-60569000D02*
X155500000Y-60569000D01*
X145331000Y-60569000D02*
X144490000Y-61410000D01*
X180000000Y-48000000D02*
X179351000Y-48649000D01*
X180000000Y-43680000D02*
X180000000Y-48000000D01*
X178500000Y-42180000D02*
X180000000Y-43680000D01*
%TO.N,/PS2_MISO*%
X143500000Y-56000000D02*
X143490000Y-56010000D01*
X143500000Y-55067100D02*
X143500000Y-56000000D01*
X143490000Y-56010000D02*
X143490000Y-61410000D01*
X146033550Y-52533550D02*
X143500000Y-55067100D01*
X163066450Y-52533550D02*
X146033550Y-52533550D01*
X178500000Y-37100000D02*
X163066450Y-52533550D01*
%TO.N,/PS2_MOSI*%
X162567100Y-52000000D02*
X146000000Y-52000000D01*
X146000000Y-52000000D02*
X142990000Y-55010000D01*
X177349000Y-37218100D02*
X162567100Y-52000000D01*
X177349000Y-35711000D02*
X177349000Y-37218100D01*
X142990000Y-55010000D02*
X142990000Y-61410000D01*
X178500000Y-34560000D02*
X177349000Y-35711000D01*
%TO.N,/AN1*%
X142441000Y-54693200D02*
X142441000Y-61361000D01*
X146488200Y-50646000D02*
X142441000Y-54693200D01*
X153734000Y-50646000D02*
X146488200Y-50646000D01*
X142441000Y-61361000D02*
X142490000Y-61410000D01*
X155010000Y-49370000D02*
X153734000Y-50646000D01*
%TO.N,/AN2*%
X147197100Y-49370000D02*
X141990000Y-54577100D01*
X152510000Y-49370000D02*
X147197100Y-49370000D01*
X141990000Y-54577100D02*
X141990000Y-61410000D01*
%TO.N,/BN1*%
X141490000Y-54510000D02*
X141490000Y-61410000D01*
X147906000Y-48094000D02*
X141490000Y-54510000D01*
X158734000Y-48094000D02*
X147906000Y-48094000D01*
X160010000Y-49370000D02*
X158734000Y-48094000D01*
%TO.N,/BN2*%
X140990000Y-54010000D02*
X140990000Y-61410000D01*
X163000000Y-46500000D02*
X148500000Y-46500000D01*
X164000000Y-47500000D02*
X163000000Y-46500000D01*
X164000000Y-50000000D02*
X164000000Y-47500000D01*
X163000000Y-51000000D02*
X164000000Y-50000000D01*
X159140000Y-51000000D02*
X163000000Y-51000000D01*
X157510000Y-49370000D02*
X159140000Y-51000000D01*
X148500000Y-46500000D02*
X140990000Y-54010000D01*
%TO.N,/BL_WAKEUP*%
X140490000Y-53644200D02*
X140490000Y-61410000D01*
X153134200Y-41000000D02*
X140490000Y-53644200D01*
X163500000Y-41000000D02*
X153134200Y-41000000D01*
X165000000Y-39500000D02*
X163500000Y-41000000D01*
X165000000Y-36000000D02*
X165000000Y-39500000D01*
X163400000Y-34400000D02*
X165000000Y-36000000D01*
X155200000Y-34400000D02*
X163400000Y-34400000D01*
%TO.N,/BL_RX*%
X139990000Y-53577100D02*
X139990000Y-61410000D01*
X148901000Y-41199000D02*
X148901000Y-44666100D01*
X155200000Y-35800000D02*
X154300000Y-35800000D01*
X154300000Y-35800000D02*
X148901000Y-41199000D01*
X148901000Y-44666100D02*
X139990000Y-53577100D01*
%TO.N,/BL_TX*%
X148500000Y-44500000D02*
X139441000Y-53559000D01*
X148500000Y-40900000D02*
X148500000Y-44500000D01*
X139441000Y-53559000D02*
X139441000Y-61361000D01*
X154300000Y-35100000D02*
X148500000Y-40900000D01*
X139441000Y-61361000D02*
X139490000Y-61410000D01*
X155200000Y-35100000D02*
X154300000Y-35100000D01*
%TO.N,Net-(MDBT42T-AT1-INDICATOR)*%
X150865000Y-33700000D02*
X150640000Y-33475000D01*
X155200000Y-33700000D02*
X150865000Y-33700000D01*
%TO.N,Net-(D4-A)*%
X148450000Y-31450000D02*
X148475000Y-31475000D01*
X148410000Y-31450000D02*
X148450000Y-31450000D01*
X148475000Y-31475000D02*
X150640000Y-31475000D01*
%TO.N,/SWDIO*%
X137990000Y-54250000D02*
X137990000Y-61410000D01*
X123780000Y-40040000D02*
X137990000Y-54250000D01*
%TO.N,/SWCLK*%
X133335000Y-63335000D02*
X135065000Y-63335000D01*
X118700000Y-48700000D02*
X133335000Y-63335000D01*
X118700000Y-40040000D02*
X118700000Y-48700000D01*
%TO.N,/USER_RX*%
X98720000Y-51270000D02*
X112285000Y-64835000D01*
X112285000Y-64835000D02*
X135065000Y-64835000D01*
%TO.N,/USER_TX*%
X123835000Y-64335000D02*
X135065000Y-64335000D01*
X108270000Y-48770000D02*
X123835000Y-64335000D01*
X98720000Y-48770000D02*
X108270000Y-48770000D01*
%TO.N,+3V3*%
X104950000Y-40040000D02*
X116160000Y-40040000D01*
X98720000Y-46270000D02*
X104950000Y-40040000D01*
D47*
%TO.N,GND*%
X155200000Y-30800000D02*
X155180000Y-30820000D01*
X160500000Y-38000000D02*
X160500000Y-39240000D01*
X160500000Y-39240000D02*
X160490000Y-39250000D01*
X155200000Y-36500000D02*
X156420000Y-36500000D01*
X155180000Y-30820000D02*
X153880000Y-30820000D01*
X161600000Y-30800000D02*
X162810000Y-30800000D01*
X156300000Y-38000000D02*
X156300000Y-39230000D01*
X157700000Y-38000000D02*
X157700000Y-39210000D01*
X162810000Y-30800000D02*
X162820000Y-30810000D01*
D46*
%TO.N,Net-(U1-PA1)*%
X143990000Y-72760000D02*
X144490000Y-72760000D01*
%TO.N,+3V3*%
X147295000Y-63335000D02*
X147470000Y-63160000D01*
X133780000Y-71210000D02*
X133780000Y-72332500D01*
D48*
X145352500Y-78580000D02*
X145352500Y-76290000D01*
D46*
X135647500Y-60270000D02*
X135577500Y-60340000D01*
X148492500Y-69835000D02*
X148960000Y-70302500D01*
X147470000Y-63160000D02*
X147470000Y-61457500D01*
X142990000Y-72760000D02*
X142990000Y-70305000D01*
X142990000Y-70305000D02*
X142520000Y-69835000D01*
X136660000Y-60270000D02*
X135647500Y-60270000D01*
X136990000Y-61410000D02*
X136990000Y-60600000D01*
X144930000Y-69385000D02*
X144480000Y-69835000D01*
X142990000Y-73927500D02*
X145352500Y-76290000D01*
X145155000Y-63335000D02*
X144930000Y-63560000D01*
X136990000Y-60600000D02*
X136660000Y-60270000D01*
X133780000Y-72332500D02*
X134137500Y-72690000D01*
X144480000Y-69835000D02*
X142520000Y-69835000D01*
X144930000Y-63560000D02*
X144930000Y-69385000D01*
X137615000Y-69835000D02*
X136990000Y-69210000D01*
X136990000Y-69210000D02*
X136990000Y-61410000D01*
X142990000Y-72760000D02*
X142990000Y-73927500D01*
D48*
X145347500Y-78585000D02*
X145352500Y-78580000D01*
X145347500Y-81570000D02*
X145347500Y-78585000D01*
D46*
X136990000Y-69210000D02*
X136990000Y-70450000D01*
X134155000Y-70835000D02*
X133780000Y-71210000D01*
X146415000Y-69835000D02*
X148492500Y-69835000D01*
X146415000Y-63335000D02*
X147295000Y-63335000D01*
X136605000Y-70835000D02*
X135065000Y-70835000D01*
X146415000Y-69835000D02*
X144480000Y-69835000D01*
X135065000Y-70835000D02*
X134155000Y-70835000D01*
X146415000Y-63335000D02*
X145155000Y-63335000D01*
X142520000Y-69835000D02*
X137615000Y-69835000D01*
X136990000Y-70450000D02*
X136605000Y-70835000D01*
%TO.N,GND*%
X145465000Y-70335000D02*
X145110000Y-70690000D01*
D48*
X137960000Y-77270000D02*
X137960000Y-78212500D01*
X148430000Y-76280000D02*
X147437500Y-76280000D01*
X173360000Y-99590000D02*
X173350000Y-99580000D01*
X135310000Y-75730000D02*
X136262500Y-75730000D01*
X175672500Y-106187500D02*
X175680000Y-106180000D01*
X100240000Y-97150000D02*
X100250000Y-97140000D01*
D46*
X135065000Y-70335000D02*
X133495000Y-70335000D01*
D48*
X174000000Y-88835000D02*
X174000000Y-90000000D01*
X173360000Y-100540000D02*
X173360000Y-99590000D01*
X137960000Y-78212500D02*
X137952500Y-78220000D01*
X147437500Y-78570000D02*
X147427500Y-78580000D01*
X141240000Y-79920000D02*
X140152500Y-79920000D01*
X136172500Y-88630000D02*
X135230000Y-88630000D01*
D46*
X138780000Y-48170000D02*
X138320000Y-48630000D01*
D48*
X148410000Y-33500000D02*
X148410000Y-32595000D01*
D46*
X138780000Y-47510000D02*
X138780000Y-48170000D01*
D48*
X135230000Y-88630000D02*
X135220000Y-88640000D01*
X133510000Y-60332500D02*
X133502500Y-60340000D01*
D46*
X137490000Y-61410000D02*
X137490000Y-60180000D01*
X133495000Y-70335000D02*
X133260000Y-70570000D01*
D48*
X142390000Y-76142500D02*
X142387500Y-76140000D01*
D46*
X137490000Y-60180000D02*
X137200000Y-59890000D01*
D48*
X132070000Y-71580000D02*
X132070000Y-72682500D01*
D46*
X146415000Y-63835000D02*
X147795000Y-63835000D01*
D48*
X132070000Y-72682500D02*
X132062500Y-72690000D01*
D46*
X147795000Y-63835000D02*
X148070000Y-63560000D01*
D48*
X133640000Y-85390000D02*
X133640000Y-84860000D01*
X174000000Y-94085000D02*
X174000000Y-92900000D01*
D47*
X136780000Y-37000000D02*
X136780000Y-35480000D01*
D48*
X116610000Y-74610000D02*
X116610000Y-72880000D01*
X147170000Y-42200000D02*
X147160000Y-42210000D01*
X174000000Y-90000000D02*
X173990000Y-90010000D01*
X142390000Y-77290000D02*
X142390000Y-76142500D01*
X148962500Y-72380000D02*
X148960000Y-72377500D01*
X130690000Y-76070000D02*
X130690000Y-75155000D01*
X147470000Y-58420000D02*
X147470000Y-59382500D01*
D46*
X142490000Y-72760000D02*
X142490000Y-73890000D01*
D48*
X133510000Y-59260000D02*
X133510000Y-60332500D01*
X148580000Y-83950000D02*
X149492500Y-83950000D01*
X175672500Y-107320000D02*
X175672500Y-106187500D01*
X147170000Y-41280000D02*
X147170000Y-42200000D01*
X133640000Y-84860000D02*
X134220000Y-84280000D01*
X101550000Y-103900000D02*
X101550000Y-104940000D01*
D46*
X142490000Y-73890000D02*
X142300000Y-74080000D01*
D48*
X147437500Y-76280000D02*
X147427500Y-76290000D01*
D46*
X146415000Y-70335000D02*
X145465000Y-70335000D01*
D48*
X148460000Y-78570000D02*
X147437500Y-78570000D01*
X148410000Y-32595000D02*
X148400000Y-32585000D01*
X150070000Y-72380000D02*
X148962500Y-72380000D01*
X99275000Y-97150000D02*
X100240000Y-97150000D01*
D46*
%TO.N,/OSC_OUT*%
X140312500Y-75032500D02*
X140312500Y-76140000D01*
X139490000Y-74210000D02*
X140312500Y-75032500D01*
X140312500Y-78060000D02*
X140152500Y-78220000D01*
X139490000Y-72760000D02*
X139490000Y-74210000D01*
X140312500Y-76140000D02*
X140312500Y-78060000D01*
%TO.N,/OSC_IN*%
X138690000Y-79920000D02*
X139030000Y-79580000D01*
X137952500Y-79920000D02*
X138690000Y-79920000D01*
X138990000Y-73830000D02*
X138410000Y-74410000D01*
X139030000Y-76422500D02*
X138337500Y-75730000D01*
X138410000Y-74410000D02*
X138410000Y-75657500D01*
X139030000Y-79580000D02*
X139030000Y-76422500D01*
X138990000Y-72760000D02*
X138990000Y-73830000D01*
X138410000Y-75657500D02*
X138337500Y-75730000D01*
D48*
%TO.N,Net-(D1-A)*%
X147105000Y-40215000D02*
X144880000Y-40215000D01*
X147160000Y-40160000D02*
X147105000Y-40215000D01*
D45*
%TO.N,/D+*%
X138555000Y-38675001D02*
X138555000Y-40095000D01*
X138380000Y-38500001D02*
X138555000Y-38675001D01*
X138380000Y-37000000D02*
X138380000Y-38500001D01*
X138555000Y-40095000D02*
X137680000Y-40970000D01*
X137680000Y-40970000D02*
X137680000Y-41715000D01*
%TO.N,/D-*%
X139180000Y-38500001D02*
X139005000Y-38675001D01*
X139005000Y-40095000D02*
X139860000Y-40950000D01*
X139860000Y-40950000D02*
X139860000Y-41735000D01*
X139180000Y-37000000D02*
X139180000Y-38500001D01*
X139005000Y-38675001D02*
X139005000Y-40095000D01*
D47*
%TO.N,Net-(J1-VBUS)*%
X139980000Y-37000000D02*
X139980000Y-38590000D01*
X140330000Y-38940000D02*
X142300000Y-38940000D01*
X142300000Y-38940000D02*
X142670000Y-39310000D01*
X142670000Y-39310000D02*
X142670000Y-40210000D01*
X139980000Y-38590000D02*
X140330000Y-38940000D01*
D45*
%TO.N,/USB_CONN_D+*%
X138554999Y-45998197D02*
X137830000Y-46723196D01*
X137830000Y-46723196D02*
X137830000Y-47510000D01*
X137680000Y-43715000D02*
X138554999Y-44589999D01*
X138554999Y-44589999D02*
X138554999Y-45998197D01*
%TO.N,/USB_CONN_D-*%
X139730000Y-46536802D02*
X139730000Y-47510000D01*
X139005001Y-45811803D02*
X139730000Y-46536802D01*
X139005001Y-44589999D02*
X139005001Y-45811803D01*
X139860000Y-43735000D02*
X139005001Y-44589999D01*
D46*
%TO.N,Vusb*%
X138780000Y-49230000D02*
X139340000Y-48670000D01*
X139340000Y-48670000D02*
X142290000Y-48670000D01*
X142290000Y-48670000D02*
X142670000Y-48290000D01*
X138780000Y-49785000D02*
X138780000Y-49230000D01*
D48*
X142715000Y-42215000D02*
X142670000Y-42260000D01*
X144880000Y-42215000D02*
X142715000Y-42215000D01*
D46*
X142670000Y-48290000D02*
X142670000Y-42260000D01*
D45*
%TO.N,/USB_D+*%
X137830000Y-50778751D02*
X137830000Y-49785000D01*
X138490000Y-60247499D02*
X138515000Y-60222499D01*
X138490000Y-61410000D02*
X138490000Y-60247499D01*
X137830000Y-50778751D02*
X138515000Y-51463750D01*
X138515000Y-60222499D02*
X138515000Y-51463750D01*
%TO.N,/USB_D-*%
X138965000Y-51543751D02*
X139730000Y-50778751D01*
X138990000Y-60247499D02*
X138965000Y-60222499D01*
X139730000Y-50778751D02*
X139730000Y-49785000D01*
X138965000Y-60222499D02*
X138965000Y-51543751D01*
X138990000Y-61410000D02*
X138990000Y-60247499D01*
D48*
%TO.N,Net-(D2-A)*%
X147347500Y-83855000D02*
X147442500Y-83950000D01*
X147347500Y-81570000D02*
X147347500Y-83855000D01*
D46*
%TO.N,Net-(D3-A)*%
X130745000Y-77150000D02*
X130690000Y-77205000D01*
X132960000Y-77150000D02*
X130745000Y-77150000D01*
%TD*%
%TA.AperFunction,Conductor*%
%TO.N,GND*%
G36*
X141923832Y-35959685D02*
G01*
X141969587Y-36012489D01*
X141980786Y-36062660D01*
X141998645Y-37714660D01*
X141979686Y-37781908D01*
X141927380Y-37828231D01*
X141874652Y-37840000D01*
X141114000Y-37840000D01*
X141046961Y-37820315D01*
X141001206Y-37767511D01*
X140990000Y-37716000D01*
X140990000Y-36064000D01*
X141009685Y-35996961D01*
X141062489Y-35951206D01*
X141114000Y-35940000D01*
X141856793Y-35940000D01*
X141923832Y-35959685D01*
G37*
%TD.AperFunction*%
%TD*%
%TA.AperFunction,Conductor*%
%TO.N,GND*%
G36*
X142013832Y-30549685D02*
G01*
X142059587Y-30602489D01*
X142070786Y-30652660D01*
X142088645Y-32304660D01*
X142069686Y-32371908D01*
X142017380Y-32418231D01*
X141964652Y-32430000D01*
X141204000Y-32430000D01*
X141136961Y-32410315D01*
X141091206Y-32357511D01*
X141080000Y-32306000D01*
X141080000Y-30654000D01*
X141099685Y-30586961D01*
X141152489Y-30541206D01*
X141204000Y-30530000D01*
X141946793Y-30530000D01*
X142013832Y-30549685D01*
G37*
%TD.AperFunction*%
%TD*%
%TA.AperFunction,Conductor*%
%TO.N,GND*%
G36*
X135703832Y-35959685D02*
G01*
X135749587Y-36012489D01*
X135760786Y-36062660D01*
X135778645Y-37714660D01*
X135759686Y-37781908D01*
X135707380Y-37828231D01*
X135654652Y-37840000D01*
X134894000Y-37840000D01*
X134826961Y-37820315D01*
X134781206Y-37767511D01*
X134770000Y-37716000D01*
X134770000Y-36064000D01*
X134789685Y-35996961D01*
X134842489Y-35951206D01*
X134894000Y-35940000D01*
X135636793Y-35940000D01*
X135703832Y-35959685D01*
G37*
%TD.AperFunction*%
%TD*%
%TA.AperFunction,Conductor*%
%TO.N,GND*%
G36*
X135653832Y-30559685D02*
G01*
X135699587Y-30612489D01*
X135710786Y-30662660D01*
X135728645Y-32314660D01*
X135709686Y-32381908D01*
X135657380Y-32428231D01*
X135604652Y-32440000D01*
X134844000Y-32440000D01*
X134776961Y-32420315D01*
X134731206Y-32367511D01*
X134720000Y-32316000D01*
X134720000Y-30664000D01*
X134739685Y-30596961D01*
X134792489Y-30551206D01*
X134844000Y-30540000D01*
X135586793Y-30540000D01*
X135653832Y-30559685D01*
G37*
%TD.AperFunction*%
%TD*%
M02*
